<svg xmlns="http://www.w3.org/2000/svg" version="1.1" xmlns:xlink="http://www.w3.org/1999/xlink" xmlns:svgjs="http://svgjs.dev/svgjs" width="1000" height="457" viewBox="0 0 1000 457"><g transform="matrix(1,0,0,1,-0.6060606060606233,0.4227875034795261)"><svg viewBox="0 0 396 181" data-background-color="#ee3e38" preserveAspectRatio="xMidYMid meet" height="457" width="1000" xmlns="http://www.w3.org/2000/svg" xmlns:xlink="http://www.w3.org/1999/xlink"><defs></defs><g id="tight-bounds" transform="matrix(1,0,0,1,0.2400000000000091,-0.16744975520742855)"><svg viewBox="0 0 395.52 181.33489951041486" height="181.33489951041486" width="395.52"><g><svg viewBox="0 0 517.9766185644219 237.4778470775787" height="181.33489951041486" width="395.52"><g><rect width="8.246336329769353" height="237.4778470775787" x="199.78964817724633" y="0" fill="#ffffff" opacity="1" stroke-width="0" stroke="transparent" fill-opacity="1" class="rect-o-0" data-fill-palette-color="primary" rx="1%" id="o-0" data-palette-color="#ffffff"></rect></g><g transform="matrix(1,0,0,1,229.62325238599306,0.5907409131282861)"><svg viewBox="0 0 288.35336617842876 236.29636525132213" height="236.29636525132213" width="288.35336617842876"><g><svg viewBox="0 0 288.35336617842876 236.29636525132213" height="236.29636525132213" width="288.35336617842876"><g><svg viewBox="0 0 288.35336617842876 198.76399999999998" height="198.76399999999998" width="288.35336617842876"><g transform="matrix(1,0,0,1,0,0)"><svg width="288.35336617842876" viewBox="1.0999994277954102 -33.70000076293945 108.95000457763672 71.65000915527344" height="198.76399999999998" data-palette-color="#ffffff"><svg></svg><svg></svg><g class="undefined-text-0" data-fill-palette-color="primary" id="text-0"><path d="M8.8 0h-5.15v-33.7h6.1l8.3 14.1c1.533 2.633 2.927 5.067 4.18 7.3 1.247 2.233 2.103 3.8 2.57 4.7v0l0.7 1.4c-0.2-3.033-0.3-7.483-0.3-13.35v0-14.15h5.15v33.7h-6.1l-8.35-14.05c-1.5-2.533-2.873-4.927-4.12-7.18-1.253-2.247-2.13-3.87-2.63-4.87v0l-0.75-1.45c0.267 3.333 0.4 7.817 0.4 13.45v0zM42.8-14.7v10.4h14.3v4.3h-19.45v-33.7h19.2v4.3h-14.05v10.4h12.45v4.3zM77.85-21.25l3.45-11.95h4.55l3.55 12 4.55 15.85c1.233-6.067 2.383-11.35 3.45-15.85v0l2.95-12.5h5.2l-8.25 33.7h-6.15l-3.2-10.65-4.35-15.05c-0.767 3.167-2.167 8.183-4.2 15.05v0l-3.1 10.65h-6.2l-8.85-33.7h5.35l3.15 12.45 3.7 15.8c1.5-5.6 2.967-10.867 4.4-15.8z" data-fill-palette-color="primary" fill="#ffffff" opacity="1"></path><path d="M1.1 3.85h22.8v4.3h-8.85v29.4h-5.15v-29.4h-8.8zM33.8 22.85v10.4h14.3v4.3h-19.45v-33.7h19.2v4.3h-14.05v10.4h12.45v4.3zM78.7 5.25v0 5.05c-1.467-0.8-2.79-1.36-3.97-1.68-1.187-0.313-2.697-0.47-4.53-0.47v0c-3.367 0-6.173 1.14-8.42 3.42-2.253 2.287-3.38 5.313-3.38 9.08v0c0 3.833 1.117 6.883 3.35 9.15 2.233 2.267 5.183 3.4 8.85 3.4v0c3.233 0 5.95-0.833 8.15-2.5v0 5.2c-2.067 1.367-4.933 2.05-8.6 2.05v0c-5.033 0-9.15-1.567-12.35-4.7-3.2-3.133-4.8-7.333-4.8-12.6v0c0-5.1 1.61-9.25 4.83-12.45 3.213-3.2 7.287-4.8 12.22-4.8v0c3.6 0 6.483 0.617 8.65 1.85zM104.9 18.35v-14.5h5.15v33.7h-5.15v-14.75h-15.15v14.75h-5.15v-33.7h5.15v14.5z" data-fill-palette-color="primary" fill="#ffffff" opacity="1"></path></g></svg></g></svg></g><g transform="matrix(1,0,0,1,0,220.35126787897735)"><svg viewBox="0 0 169.29226128335551 15.945097372344783" height="15.945097372344783" width="169.29226128335551"><g transform="matrix(1,0,0,1,0,0)"><svg width="169.29226128335551" viewBox="4 -35.599998474121094 382.70001220703125 36.04999923706055" height="15.945097372344783" data-palette-color="#ffffff"><path d="M13.85 0L13.85 0 4 0 4-33.7 13.6-33.7Q21-33.7 25.75-29.1 30.5-24.5 30.5-17.05L30.5-17.05Q30.5-12.5 28.75-8.72 27-4.95 23.13-2.48 19.25 0 13.85 0ZM13.6-30.85L13.6-30.85 7.1-30.85 7.1-2.85 13.85-2.85Q17.3-2.85 19.95-4.05 22.6-5.25 24.15-7.3 25.7-9.35 26.48-11.8 27.25-14.25 27.25-17.05L27.25-17.05Q27.25-22.8 23.43-26.83 19.6-30.85 13.6-30.85ZM39.6-14.15L39.6 0 36.55 0 36.55-25.35 39.6-25.35 39.6-21.05Q41.7-25.65 46.7-25.65L46.7-25.65Q47.05-25.65 47.95-25.55L47.95-25.55 47.95-22.45Q46.95-22.75 45.95-22.75L45.95-22.75Q43.25-22.75 41.42-20.08 39.6-17.4 39.6-14.15L39.6-14.15ZM55.5-25.35L55.5 0 52.45 0 52.45-25.35 55.5-25.35ZM55.47-34.98Q56.1-34.35 56.1-33.45 56.1-32.55 55.47-31.95 54.85-31.35 53.95-31.35 53.05-31.35 52.45-31.95 51.85-32.55 51.85-33.45 51.85-34.35 52.45-34.98 53.05-35.6 53.95-35.6 54.85-35.6 55.47-34.98ZM82.84-25.35L73.84 0 69.74 0 60.99-25.35 64.19-25.35 67.74-14.7 71.79-2.45Q72.29-4.3 75.94-14.7L75.94-14.7 79.64-25.35 82.84-25.35ZM106.29-4.35L106.29-1.25Q103.29 0.25 99.29 0.25L99.29 0.25Q93.64 0.25 90.12-3.28 86.59-6.8 86.59-12.55L86.59-12.55Q86.59-18.65 89.69-22.15 92.79-25.65 97.74-25.65L97.74-25.65Q102.39-25.65 105.14-22.6 107.89-19.55 107.89-14L107.89-14Q107.89-12.3 107.69-11.3L107.69-11.3 89.79-11.3Q90.14-7.1 92.69-4.88 95.24-2.65 99.44-2.65L99.44-2.65Q103.74-2.65 106.29-4.35L106.29-4.35ZM97.64-22.8L97.64-22.8Q94.44-22.8 92.29-20.55 90.14-18.3 89.79-14.1L89.79-14.1 104.74-14.1 104.74-15.25Q104.74-18.7 102.81-20.75 100.89-22.8 97.64-22.8ZM137.24-3.8L137.24-0.7Q135.79 0.25 133.89 0.25L133.89 0.25Q126.69 0.25 126.69-7.15L126.69-7.15 126.69-22.75 122.54-22.75 122.54-25.35 126.69-25.35 126.69-31.7 129.79-31.7 129.79-25.35 137.04-25.35 137.04-22.75 129.79-22.75 129.79-7Q129.79-2.65 133.84-2.65L133.84-2.65Q135.84-2.65 137.24-3.8L137.24-3.8ZM165.28-12.55L165.28-12.55Q165.28-6.9 162.11-3.23 158.93 0.45 153.38 0.45L153.38 0.45Q148.03 0.45 144.88-3.25 141.73-6.95 141.73-12.55L141.73-12.55Q141.73-18.1 144.98-21.9 148.23-25.7 153.38-25.7L153.38-25.7Q159.03-25.7 162.16-21.98 165.28-18.25 165.28-12.55ZM144.93-12.55L144.93-12.55Q144.93-8.4 147.26-5.43 149.58-2.45 153.38-2.45L153.38-2.45Q157.53-2.45 159.81-5.38 162.08-8.3 162.08-12.55L162.08-12.55Q162.08-16.95 159.93-19.88 157.78-22.8 153.38-22.8L153.38-22.8Q149.43-22.8 147.18-19.8 144.93-16.8 144.93-12.55ZM194.48-3.8L194.48-0.7Q193.03 0.25 191.13 0.25L191.13 0.25Q183.93 0.25 183.93-7.15L183.93-7.15 183.93-22.75 179.78-22.75 179.78-25.35 183.93-25.35 183.93-31.7 187.03-31.7 187.03-25.35 194.28-25.35 194.28-22.75 187.03-22.75 187.03-7Q187.03-2.65 191.08-2.65L191.08-2.65Q193.08-2.65 194.48-3.8L194.48-3.8ZM219.68-17.7L219.68 0 216.63 0 216.63-16.75Q216.63-19.7 215.13-21.25 213.63-22.8 211.18-22.8L211.18-22.8Q208.08-22.8 205.83-20.43 203.58-18.05 203.58-14L203.58-14 203.58 0 200.53 0 200.53-35.35 203.58-35.35 203.58-21Q205.88-25.75 211.63-25.75L211.63-25.75Q215.28-25.75 217.48-23.5 219.68-21.25 219.68-17.7L219.68-17.7ZM245.12-4.35L245.12-1.25Q242.12 0.25 238.12 0.25L238.12 0.25Q232.47 0.25 228.95-3.28 225.42-6.8 225.42-12.55L225.42-12.55Q225.42-18.65 228.52-22.15 231.62-25.65 236.57-25.65L236.57-25.65Q241.22-25.65 243.97-22.6 246.72-19.55 246.72-14L246.72-14Q246.72-12.3 246.52-11.3L246.52-11.3 228.62-11.3Q228.97-7.1 231.52-4.88 234.07-2.65 238.27-2.65L238.27-2.65Q242.57-2.65 245.12-4.35L245.12-4.35ZM236.47-22.8L236.47-22.8Q233.27-22.8 231.12-20.55 228.97-18.3 228.62-14.1L228.62-14.1 243.57-14.1 243.57-15.25Q243.57-18.7 241.65-20.75 239.72-22.8 236.47-22.8ZM275.12-25.35L275.12-22.75 269.32-22.75 269.32 0 266.27 0 266.27-22.75 261.62-22.75 261.62-25.35 266.27-25.35 266.27-28.05Q266.27-31.5 268.07-33.55 269.87-35.6 273.12-35.6L273.12-35.6Q274.07-35.6 275.17-35.3L275.17-35.3 275.17-32.3Q274.12-32.7 272.97-32.7L272.97-32.7Q271.47-32.7 270.39-31.53 269.32-30.35 269.32-28L269.32-28 269.32-25.35 275.12-25.35ZM299.01-25.35L299.01 0 295.97 0 295.97-4.55Q293.97 0.35 287.92 0.35L287.92 0.35Q284.22 0.35 282.04-1.88 279.87-4.1 279.87-7.75L279.87-7.75 279.87-25.35 282.92-25.35 282.92-8.6Q282.92-5.7 284.44-4.15 285.97-2.6 288.47-2.6L288.47-2.6Q291.81-2.6 293.89-5 295.97-7.4 295.97-11.25L295.97-11.25 295.97-25.35 299.01-25.35ZM318.76-3.8L318.76-0.7Q317.31 0.25 315.41 0.25L315.41 0.25Q308.21 0.25 308.21-7.15L308.21-7.15 308.21-22.75 304.06-22.75 304.06-25.35 308.21-25.35 308.21-31.7 311.31-31.7 311.31-25.35 318.56-25.35 318.56-22.75 311.31-22.75 311.31-7Q311.31-2.65 315.36-2.65L315.36-2.65Q317.36-2.65 318.76-3.8L318.76-3.8ZM343.66-25.35L343.66 0 340.61 0 340.61-4.55Q338.61 0.35 332.56 0.35L332.56 0.35Q328.86 0.35 326.69-1.88 324.51-4.1 324.51-7.75L324.51-7.75 324.51-25.35 327.56-25.35 327.56-8.6Q327.56-5.7 329.08-4.15 330.61-2.6 333.11-2.6L333.11-2.6Q336.46-2.6 338.53-5 340.61-7.4 340.61-11.25L340.61-11.25 340.61-25.35 343.66-25.35ZM354.31-14.15L354.31 0 351.26 0 351.26-25.35 354.31-25.35 354.31-21.05Q356.41-25.65 361.41-25.65L361.41-25.65Q361.76-25.65 362.66-25.55L362.66-25.55 362.66-22.45Q361.66-22.75 360.66-22.75L360.66-22.75Q357.96-22.75 356.13-20.08 354.31-17.4 354.31-14.15L354.31-14.15ZM385.1-4.35L385.1-1.25Q382.1 0.25 378.1 0.25L378.1 0.25Q372.45 0.25 368.93-3.28 365.4-6.8 365.4-12.55L365.4-12.55Q365.4-18.65 368.5-22.15 371.6-25.65 376.55-25.65L376.55-25.65Q381.2-25.65 383.95-22.6 386.7-19.55 386.7-14L386.7-14Q386.7-12.3 386.5-11.3L386.5-11.3 368.6-11.3Q368.95-7.1 371.5-4.88 374.05-2.65 378.25-2.65L378.25-2.65Q382.55-2.65 385.1-4.35L385.1-4.35ZM376.45-22.8L376.45-22.8Q373.25-22.8 371.1-20.55 368.95-18.3 368.6-14.1L368.6-14.1 383.55-14.1 383.55-15.25Q383.55-18.7 381.63-20.75 379.7-22.8 376.45-22.8Z" opacity="1" transform="matrix(1,0,0,1,0,0)" fill="#ffffff" class="undefined-text-1" data-fill-palette-color="secondary" id="text-1"></path></svg></g></svg></g></svg></g></svg></g><g transform="matrix(1,0,0,1,0,29.63773338965487)"><svg viewBox="0 0 178.20238029826896 178.20238029826896" height="178.20238029826896" width="178.20238029826896"><g><svg xmlns="http://www.w3.org/2000/svg" xmlns:xlink="http://www.w3.org/1999/xlink" version="1.0" x="0" y="0" viewBox="1 1 48 48" enable-background="new 0 0 50 50" xml:space="preserve" height="178.20238029826896" width="178.20238029826896" class="icon-icon-0" data-fill-palette-color="accent" id="icon-0"><g fill="#ffffff" data-fill-palette-color="accent"><g fill="#ffffff" data-fill-palette-color="accent"><rect x="1" y="1" fill="#ffffff" width="23" height="5" data-fill-palette-color="accent"></rect><rect x="1" y="10" fill="#ffffff" width="23" height="5" data-fill-palette-color="accent"></rect><rect x="1" y="19" fill="#ffffff" width="23" height="5" data-fill-palette-color="accent"></rect></g><g fill="#ffffff" data-fill-palette-color="accent"><rect x="26" y="26" fill="#ffffff" width="23" height="5" data-fill-palette-color="accent"></rect><rect x="26" y="35" fill="#ffffff" width="23" height="5" data-fill-palette-color="accent"></rect><rect x="26" y="44" fill="#ffffff" width="23" height="5" data-fill-palette-color="accent"></rect></g><g fill="#ffffff" data-fill-palette-color="accent"><rect x="19" y="26" fill="#ffffff" width="5" height="23" data-fill-palette-color="accent"></rect><rect x="10" y="26" fill="#ffffff" width="5" height="23" data-fill-palette-color="accent"></rect><rect x="1" y="26" fill="#ffffff" width="5" height="23" data-fill-palette-color="accent"></rect></g><g fill="#ffffff" data-fill-palette-color="accent"><rect x="44" y="1" fill="#ffffff" width="5" height="23" data-fill-palette-color="accent"></rect><rect x="35" y="1" fill="#ffffff" width="5" height="23" data-fill-palette-color="accent"></rect><rect x="26" y="1" fill="#ffffff" width="5" height="23" data-fill-palette-color="accent"></rect></g></g></svg></g></svg></g></svg></g></svg><rect width="395.52" height="181.33489951041486" fill="none" stroke="none" visibility="hidden"></rect></g></svg></g></svg>