<svg id="Layer_1" data-name="Layer 1" xmlns="http://www.w3.org/2000/svg" xmlns:xlink="http://www.w3.org/1999/xlink" viewBox="0 0 240.5 240.5"><defs><style>.cls-1{fill:#ee3e38;}.cls-2{clip-path:url(#clip-path);}.cls-3{clip-path:url(#clip-path-2);}.cls-4{clip-path:url(#clip-path-3);}.cls-5{clip-path:url(#clip-path-4);}.cls-6{clip-path:url(#clip-path-5);}</style><clipPath id="clip-path"><rect class="cls-1" x="124.95" y="214.95" width="115.55" height="25.54"/></clipPath><clipPath id="clip-path-2"><rect class="cls-1" x="89.95" y="124.95" width="26" height="115.54"/></clipPath><clipPath id="clip-path-3"><rect class="cls-1" x="44.95" y="124.95" width="26" height="115.54"/></clipPath><clipPath id="clip-path-4"><rect class="cls-1" y="124.95" width="25.94" height="115.54"/></clipPath><clipPath id="clip-path-5"><rect class="cls-1" x="214.95" width="25.55" height="115.95"/></clipPath></defs><title>icon</title><rect class="cls-1" width="115.24" height="25.05"/><rect class="cls-1" y="45.09" width="115.24" height="25.05"/><rect class="cls-1" y="90.19" width="115.24" height="25.05"/><rect class="cls-1" x="125.26" y="125.26" width="115.24" height="25.06"/><rect class="cls-1" x="125.26" y="170.35" width="115.24" height="25.05"/><rect class="cls-1" x="124.95" y="214.95" width="115.55" height="25.54"/><g class="cls-2"><rect class="cls-1" x="125.26" y="215.45" width="115.24" height="25.05"/></g><rect class="cls-1" x="89.95" y="124.95" width="26" height="115.54"/><g class="cls-3"><rect class="cls-1" x="90.18" y="125.26" width="25.05" height="115.24"/></g><rect class="cls-1" x="44.95" y="124.95" width="26" height="115.54"/><g class="cls-4"><rect class="cls-1" x="45.09" y="125.26" width="25.05" height="115.24"/></g><rect class="cls-1" y="124.95" width="25.94" height="115.54"/><g class="cls-5"><rect class="cls-1" y="125.26" width="25.05" height="115.24"/></g><rect class="cls-1" x="214.95" width="25.55" height="115.95"/><g class="cls-6"><rect class="cls-1" x="215.45" width="25.05" height="115.24"/></g><rect class="cls-1" x="170.35" width="25.05" height="115.24"/><rect class="cls-1" x="125.26" width="25.05" height="115.24"/></svg>