<svg id="Layer_1" data-name="Layer 1" xmlns="http://www.w3.org/2000/svg" xmlns:xlink="http://www.w3.org/1999/xlink" viewBox="0 0 650.29 240.69"><defs><style>.cls-1{fill:none;}.cls-2{fill:#ee3e38;}.cls-3{clip-path:url(#clip-path);}.cls-4{clip-path:url(#clip-path-2);}.cls-5{clip-path:url(#clip-path-3);}.cls-6{clip-path:url(#clip-path-4);}.cls-7{clip-path:url(#clip-path-5);}.cls-8{clip-path:url(#clip-path-6);}</style><clipPath id="clip-path"><rect class="cls-1" x="284.69" y="123.18" width="365.6" height="116.49"/></clipPath><clipPath id="clip-path-2"><rect class="cls-1" x="124.95" y="215.15" width="115.55" height="25.54"/></clipPath><clipPath id="clip-path-3"><rect class="cls-2" x="89.95" y="125.15" width="26" height="115.54"/></clipPath><clipPath id="clip-path-4"><rect class="cls-2" x="44.95" y="125.15" width="26" height="115.54"/></clipPath><clipPath id="clip-path-5"><rect class="cls-2" y="125.15" width="25.94" height="115.54"/></clipPath><clipPath id="clip-path-6"><rect class="cls-2" x="214.95" y="0.2" width="25.55" height="115.95"/></clipPath></defs><title>logo</title><path class="cls-2" d="M302.33,115.42H284.69V0h20.9L334,48.29q7.88,13.53,14.32,25t8.8,16.1l2.4,4.79q-1-15.57-1-45.72V0h17.64V115.42H355.25L326.65,67.3q-7.71-13-14.11-24.59t-9-16.68l-2.57-5q1.38,17.11,1.37,46.06ZM418.78,65.07v35.62h49v14.73H401.14V0H466.9V14.73H418.78V50.35h42.64V65.07Zm120-22.43L550.64,1.71h15.58l12.16,41.1L594,97.1q6.33-31.17,11.82-54.29L615.88,0h17.81L605.43,115.42H584.37l-11-36.48L558.51,27.4q-3.93,16.27-14.38,51.54l-10.62,36.48H512.28L482,0h18.32l10.79,42.64,12.67,54.11Q531.46,68,538.82,42.64Zm0,0"/><g class="cls-3"><path class="cls-2" d="M284.69,125.18H361.2V139.6H331.51v98.66H314.23V139.6H284.69Zm109.74,63.75v34.9h48v14.43H377.14V125.18h64.43V139.6H394.43v34.91H436.2v14.42Zm150.66-59.05v16.94a63.28,63.28,0,0,0-13.32-5.64,61,61,0,0,0-15.2-1.58q-17,0-28.26,11.48T477,181.55q0,19.29,11.24,30.71t29.7,11.41q16.27,0,27.35-8.39v17.45q-10.41,6.87-28.86,6.87-25.33,0-41.44-15.77t-16.11-42.28q0-25.67,16.21-41.78t41-16.1q18.13,0,29,6.21Zm87.92,44V125.18h17.28V238.26H633V188.77H582.17v49.49H564.89V125.18h17.28v48.65Zm0,0"/></g><rect class="cls-2" y="0.2" width="115.24" height="25.05"/><rect class="cls-2" y="45.29" width="115.24" height="25.05"/><rect class="cls-2" y="90.38" width="115.24" height="25.05"/><rect class="cls-2" x="125.26" y="125.45" width="115.24" height="25.06"/><rect class="cls-2" x="125.26" y="170.55" width="115.24" height="25.05"/><g class="cls-4"><rect class="cls-2" x="125.26" y="215.64" width="115.24" height="25.05"/></g><rect class="cls-2" x="89.95" y="125.15" width="26" height="115.54"/><g class="cls-5"><rect class="cls-2" x="90.18" y="125.45" width="25.05" height="115.24"/></g><rect class="cls-2" x="44.95" y="125.15" width="26" height="115.54"/><g class="cls-6"><rect class="cls-2" x="45.09" y="125.45" width="25.05" height="115.24"/></g><rect class="cls-2" y="125.15" width="25.94" height="115.54"/><g class="cls-7"><rect class="cls-2" y="125.45" width="25.05" height="115.24"/></g><rect class="cls-2" x="214.95" y="0.2" width="25.55" height="115.95"/><g class="cls-8"><rect class="cls-2" x="215.45" y="0.2" width="25.05" height="115.24"/></g><rect class="cls-2" x="170.35" y="0.2" width="25.05" height="115.24"/><rect class="cls-2" x="125.26" y="0.2" width="25.05" height="115.24"/></svg>