<svg id="Layer_1" data-name="Layer 1" xmlns="http://www.w3.org/2000/svg" xmlns:xlink="http://www.w3.org/1999/xlink" viewBox="0 0 734.57 116.49"><defs><style>.cls-1{fill:none;}.cls-2{fill:#ee3e38;}.cls-3{clip-path:url(#clip-path);}</style><clipPath id="clip-path"><rect class="cls-1" x="368.98" width="365.6" height="116.49"/></clipPath></defs><title>wordmark</title><path class="cls-2" d="M17.64,116H0V.54H20.89L49.32,48.83q7.88,13.53,14.31,25t8.81,16.1l2.39,4.79q-1-15.57-1-45.72V.54H91.44V116H70.55L42,67.84q-7.71-13-14.11-24.59t-9-16.68l-2.57-5q1.36,17.13,1.37,46.07ZM134.08,65.61v35.62h49V116H116.44V.54H182.2V15.26H134.08V50.89h42.64V65.61Zm120-22.43L265.94,2.25h15.59l12.15,41.1,15.59,54.28q6.33-31.15,11.81-54.28L331.18.54H349L320.74,116H299.68l-11-36.48-14.9-51.54q-3.94,16.26-14.39,51.54L248.82,116H227.58L197.27.54H215.6l10.78,42.64,12.67,54.11q7.71-28.77,15.08-54.11Zm0,0"/><g class="cls-3"><path class="cls-2" d="M369,2h76.51V16.43h-29.7v98.66H398.51V16.43H369ZM478.71,65.76v34.9h48v14.43H461.43V2h64.42V16.43H478.71v34.9h41.77V65.76ZM629.37,6.7V23.64A62.67,62.67,0,0,0,616.05,18a61,61,0,0,0-15.2-1.58q-17,0-28.25,11.48T561.26,58.38q0,19.29,11.24,30.7t29.69,11.41q16.27,0,27.35-8.39v17.45q-10.41,6.89-28.86,6.88-25.32,0-41.44-15.77T543.13,58.38q0-25.68,16.21-41.78t41-16.11q18.12,0,29,6.21Zm87.92,44V2h17.28V115.09H717.29V65.59H666.45v49.5H649.17V2h17.28V50.66Zm0,0"/></g></svg>